<svg xmlns="http://www.w3.org/2000/svg" width="117" height="30">
    <g fill="none" fill-rule="evenodd">
        <rect width="30" height="30" fill="#FA5D63" rx="4"/>
        <path fill="#FEFEFE" d="M16.206 21.47a.876.876 0 0 1-.88-.872c0-.48.395-.87.88-.87.484 0 .878.39.878.87a.875.875 0 0 1-.878.872m-2.005-.336a2.042 2.042 0 0 1-2.74.897 2.041 2.041 0 0 1-.897-2.74.493.493 0 0 1 .877.444 1.056 1.056 0 0 0 1.882.955.493.493 0 0 1 .878.444m-5.086-3.94c0-.481.393-.872.879-.872.485 0 .879.39.879.871a.876.876 0 0 1-.879.872.876.876 0 0 1-.88-.872m13.489-1.998l-2.757 2.174c-.647.371-1.383-.08-.737-.867l4.453-5.249c.965-1.364-.279-2.634-1.377-1.504l-4.469 4.78c-.637.898-1.371.447-.931-.658l4.048-6.59c1.15-1.484-1.054-2.837-2.063-1.268l-4.049 6.59c-.58 1.019-1.314.568-1.016-.625l2.156-6.113c.446-1.532-1.249-2.067-1.96-.547l-3.07 7.848c-.388.713-1.799 1.363-2.095-.083l-.349-3.168c-.32-2.048-2.466-1.85-2.448.246l.071 6.825c.07 3.916 1.149 6.505 3.212 7.773 2.067 1.27 5.458 1.316 8.28-1.542l6.253-6.333c1.23-1.152-.015-2.421-1.152-1.69"/>
        <path fill="#000" fill-opacity=".85" d="M52.6 8.596c0-.868-.775-1.595-1.714-1.595-.891 0-1.689.75-1.712 1.595v5.115h-5.749V8.596c0-.868-.774-1.595-1.712-1.595-.892 0-1.69.75-1.713 1.595v13.21c0 .844.821 1.595 1.713 1.595.938 0 1.712-.728 1.712-1.596v-5.02h5.749v5.02c0 .845.82 1.596 1.712 1.596.939 0 1.713-.728 1.713-1.596V8.596zm4.785 8.235c.282-1.384 1.22-1.994 2.44-1.994s2.135.657 2.3 1.994h-4.74zm6.617 3.496c-.47-.54-1.314-.68-2.065-.164-.68.47-1.244.516-1.9.516-1.15 0-2.534-.54-2.699-1.806H64.4c.517 0 1.01-.423 1.01-1.01 0-3.448-2.488-5.748-5.608-5.748-3.144 0-5.725 2.206-5.725 5.655 0 3.449 2.581 5.725 5.725 5.725 1.29 0 2.675-.259 3.777-.986.798-.47 1.033-1.478.423-2.182zm11.684-6.1c.305-.845-.165-1.736-.962-1.947-1.033-.258-1.783.21-2.042.938l-2.111 5.35-2.065-5.35c-.258-.727-1.009-1.196-2.04-.938-.799.21-1.268 1.102-.963 1.947l3.402 7.93-1.83 4.552c-.328.844.14 1.783.939 1.97 1.008.235 1.76-.187 2.064-.914l5.608-13.538zm-1.432 11.238c-.82-.07-1.548.587-1.618 1.432-.094.844.492 1.501 1.29 1.689a6.02 6.02 0 0 0 1.22.164c3.871 0 5.302-2.51 5.302-5.467V8.596c0-.868-.774-1.595-1.712-1.595-.892 0-1.69.75-1.713 1.595v14.687c0 1.22-.516 2.23-1.854 2.23-.07 0-.469 0-.915-.048zm13.468-1.97c3.19 0 5.771-2.276 5.771-5.725 0-3.45-2.58-5.655-5.771-5.655s-5.749 2.206-5.749 5.655c0 3.449 2.558 5.725 5.749 5.725zm0-3.168c-1.338 0-2.464-1.056-2.464-2.557 0-1.478 1.126-2.487 2.464-2.487 1.36 0 2.487 1.009 2.487 2.487 0 1.501-1.127 2.557-2.487 2.557zm10.393-6.452v-6.17c-.023-.798-.774-1.455-1.642-1.455-.892 0-1.642.633-1.642 1.455v14.241c0 .821.75 1.455 1.642 1.455.868 0 1.619-.657 1.642-1.455v-.211c.704 1.15 2.041 1.76 3.285 1.76 2.792 0 5.326-2.065 5.326-5.702 0-3.636-2.534-5.678-5.326-5.678-.704 0-2.346.305-3.285 1.76zm5.232 3.942c0 1.454-.938 2.768-2.58 2.768-1.479 0-2.675-1.314-2.675-2.768 0-1.455 1.196-2.769 2.674-2.769 1.643 0 2.581 1.314 2.581 2.769zm4.2 3.355c.563 1.619 2.628 2.346 4.387 2.346 2.3 0 4.74-1.103 4.74-3.425 0-.704-.329-2.417-2.98-3.285l-1.666-.563c-.657-.211-.938-.423-.938-.774 0-.423.492-.657 1.196-.657.423 0 .845.14 1.314.492.68.516 1.36.68 2.088.258.493-.281.68-.962.282-1.665-.751-1.314-2.37-1.807-3.942-1.807-2.3 0-4.246 1.502-4.246 3.12 0 1.01-.024 2.558 3.26 3.66l1.244.446c.798.258 1.08.423 1.08.892 0 .563-.68.68-1.408.68-.774 0-1.478-.328-2.065-.962a1.477 1.477 0 0 0-1.76-.399c-.54.235-.82.962-.586 1.643z"/>
    </g>
</svg>